<?xml version="1.0" encoding="UTF-8"?>
<!DOCTYPE svg PUBLIC "-//W3C//DTD SVG 1.1//EN" "http://www.w3.org/Graphics/SVG/1.1/DTD/svg11.dtd">
<svg xmlns="http://www.w3.org/2000/svg" version="1.1" width="32px" height="28px" style="shape-rendering:geometricPrecision; text-rendering:geometricPrecision; image-rendering:optimizeQuality; fill-rule:evenodd; clip-rule:evenodd" xmlns:xlink="http://www.w3.org/1999/xlink">
<g><path style="opacity:0.911" fill="#46a037" d="M -0.5,-0.5 C 1.83333,-0.5 4.16667,-0.5 6.5,-0.5C 6.5,1.5 6.5,3.5 6.5,5.5C 10.8333,5.5 15.1667,5.5 19.5,5.5C 19.5,3.5 19.5,1.5 19.5,-0.5C 21.8333,-0.5 24.1667,-0.5 26.5,-0.5C 26.5,1.83333 26.5,4.16667 26.5,6.5C 24.5,6.5 22.5,6.5 20.5,6.5C 20.5,11.1667 20.5,15.8333 20.5,20.5C 18.1667,20.5 15.8333,20.5 13.5,20.5C 13.5,22.5 13.5,24.5 13.5,26.5C 8.83333,26.5 4.16667,26.5 -0.5,26.5C -0.5,24.1667 -0.5,21.8333 -0.5,19.5C 1.5,19.5 3.5,19.5 5.5,19.5C 5.5,15.1667 5.5,10.8333 5.5,6.5C 3.5,6.5 1.5,6.5 -0.5,6.5C -0.5,4.16667 -0.5,1.83333 -0.5,-0.5 Z"/></g>
</svg>
